<?xml version="1.0" standalone="no"?>
<!DOCTYPE svg PUBLIC "-//W3C//DTD SVG 20010904//EN"
 "http://www.w3.org/TR/2001/REC-SVG-20010904/DTD/svg10.dtd">
<svg version="1.0" xmlns="http://www.w3.org/2000/svg"
 width="958.000000pt" height="1280.000000pt" viewBox="0 0 958.000000 1280.000000"
 preserveAspectRatio="xMidYMid meet">
<metadata>
Created by potrace 1.15, written by Peter Selinger 2001-2017
</metadata>
<g transform="translate(0.000000,1280.000000) scale(0.100000,-0.100000)"
fill="#000000" stroke="none">
<path d="M1814 12791 c-11 -5 -28 -21 -37 -35 -12 -17 -35 -31 -75 -42 -76
-22 -102 -46 -102 -97 0 -35 6 -46 45 -81 25 -23 45 -46 45 -50 0 -18 -108 4
-175 36 -118 56 -235 42 -235 -28 0 -27 129 -126 222 -171 32 -16 58 -34 58
-40 0 -21 -70 -15 -151 13 -113 39 -212 56 -262 44 -46 -10 -87 -49 -87 -82 0
-28 71 -97 109 -104 32 -7 33 -24 2 -24 -11 0 -29 -8 -41 -18 -19 -16 -21 -21
-11 -41 7 -12 37 -34 68 -48 100 -48 103 -110 8 -215 -53 -59 -97 -146 -120
-238 -32 -129 -57 -189 -115 -281 -66 -102 -72 -133 -46 -220 12 -40 12 -50 0
-76 -20 -40 -63 -63 -237 -122 -177 -60 -235 -90 -298 -153 -99 -99 -222 -312
-270 -468 -31 -102 -34 -275 -5 -334 28 -55 69 -78 133 -73 73 5 144 51 277
178 61 58 122 112 135 118 37 20 146 32 178 21 15 -6 62 -47 103 -92 75 -81
76 -81 134 -86 33 -3 104 3 167 14 60 10 112 15 115 11 13 -13 -22 -40 -102
-78 -96 -45 -154 -102 -154 -149 0 -31 31 -104 50 -115 18 -11 11 -41 -16 -66
-46 -43 -54 -70 -48 -156 6 -73 4 -82 -23 -133 -24 -46 -38 -60 -88 -85 -54
-28 -68 -30 -194 -35 -141 -6 -171 -14 -203 -54 -22 -26 -23 -58 -3 -95 37
-73 140 -120 280 -128 117 -7 178 9 356 92 295 140 353 147 277 38 -56 -82
-82 -184 -62 -238 25 -63 234 -61 285 3 10 14 19 31 19 38 0 7 20 36 45 64 25
28 45 60 45 71 0 10 -14 50 -31 87 -20 45 -28 76 -25 94 5 23 1 30 -24 43 -17
9 -30 20 -30 25 0 6 21 25 48 44 58 42 70 63 125 212 46 126 77 191 109 235
22 30 17 49 -13 49 -31 0 -25 51 11 85 28 27 30 33 30 106 0 68 5 89 36 159
30 70 34 84 22 99 -7 10 -27 37 -45 60 -23 30 -34 60 -43 112 -18 108 -47 79
-49 -49 -1 -63 0 -64 44 -108 59 -57 59 -71 -1 -163 -15 -22 -23 -56 -28 -112
-4 -45 -13 -94 -21 -110 -8 -15 -15 -44 -15 -63 0 -19 -5 -59 -11 -88 -16 -76
-123 -306 -162 -346 -56 -60 -143 -109 -260 -147 -62 -20 -186 -73 -277 -116
-145 -70 -176 -81 -253 -91 -139 -19 -293 10 -311 58 -11 28 6 34 110 45 159
16 234 42 305 106 64 57 91 121 99 233 4 52 11 103 15 113 4 10 67 47 139 82
148 73 255 152 316 233 69 92 75 151 23 212 -44 53 -55 53 -255 15 -203 -40
-308 -46 -357 -21 -17 9 -31 21 -31 25 0 5 -45 56 -99 113 l-100 104 84 -4
c79 -4 85 -3 109 21 46 46 47 141 1 196 -52 61 -158 80 -241 42 -69 -31 -61
-39 39 -33 105 5 154 -9 183 -53 14 -22 15 -32 5 -65 -16 -54 -37 -63 -125
-55 -94 9 -169 -6 -272 -55 -130 -62 -248 -191 -123 -135 22 10 42 15 45 12 4
-4 -17 -32 -46 -64 -28 -31 -65 -81 -82 -110 -36 -63 -61 -83 -105 -83 -45 0
-99 49 -114 103 -14 53 -5 169 21 271 42 165 155 325 295 416 35 23 121 64
192 91 230 90 346 158 379 221 21 40 10 63 -42 94 -64 38 -61 71 16 164 48 58
60 82 60 117 0 105 94 328 169 403 84 84 141 75 193 -30 32 -66 55 -86 111
-95 69 -12 80 -21 74 -63 -20 -134 -20 -145 -2 -178 10 -18 33 -40 52 -49 19
-9 42 -30 52 -47 9 -17 33 -56 53 -87 39 -58 46 -85 27 -97 -8 -5 -10 -29 -5
-78 4 -39 11 -124 16 -189 4 -65 14 -124 20 -132 6 -8 32 -26 56 -40 l44 -26
0 -59 c0 -74 18 -80 49 -15 40 84 23 128 -60 155 -22 8 -44 21 -48 29 -5 9
-11 57 -14 106 -2 50 -12 108 -21 131 -17 40 -16 41 14 105 16 35 30 77 30 92
0 38 -17 67 -39 67 -18 0 -46 27 -73 71 -9 14 -32 33 -50 42 -57 27 -72 50
-65 102 4 24 20 71 36 102 35 71 44 109 33 148 -11 41 -36 43 -78 6 -50 -45
-104 -38 -152 19 -30 35 -74 142 -79 193 -7 71 15 97 81 97 36 0 47 -5 60 -25
9 -14 24 -25 34 -25 70 0 379 -213 497 -343 73 -79 207 -278 264 -393 98 -193
147 -382 172 -652 10 -113 10 -146 -6 -252 -23 -168 -23 -185 4 -214 13 -13
25 -42 28 -65 3 -23 9 -44 13 -46 12 -7 56 140 75 248 10 54 19 96 21 94 5 -5
-15 -233 -27 -306 -13 -80 -54 -173 -116 -259 -66 -94 -234 -299 -282 -347
-35 -33 -41 -36 -41 -19 0 11 11 35 25 54 27 37 33 70 12 70 -17 0 -45 -39
-92 -128 -21 -40 -58 -95 -82 -122 l-43 -48 30 -7 c16 -4 32 -10 35 -14 2 -5
-20 -45 -50 -90 -87 -132 -102 -231 -35 -231 16 0 31 -4 34 -9 7 -11 -21 -177
-33 -199 -6 -11 -11 -7 -19 17 -6 18 -18 31 -28 31 -13 0 -15 6 -9 28 28 113
8 134 -24 24 -111 -381 -116 -420 -82 -622 23 -133 84 -405 126 -559 29 -110
32 -149 8 -158 -19 -7 -48 25 -95 107 -66 116 -144 190 -200 190 -36 0 -105
-39 -112 -63 -10 -39 14 -83 76 -139 l63 -58 -37 0 c-55 0 -102 22 -323 150
-254 147 -295 169 -546 284 -269 124 -300 136 -359 136 -61 0 -110 -36 -110
-80 0 -35 41 -63 230 -153 l135 -65 -150 1 c-144 2 -152 1 -215 -26 -36 -16
-103 -42 -150 -58 -94 -33 -142 -65 -165 -109 -22 -43 -19 -58 17 -80 26 -15
35 -30 43 -66 16 -76 43 -89 178 -89 71 1 162 9 246 24 145 25 155 24 259 -20
l47 -20 -150 -58 c-245 -95 -325 -141 -325 -187 0 -48 67 -65 176 -45 186 35
354 32 530 -9 116 -27 516 -149 534 -163 8 -6 32 -26 53 -44 51 -45 92 -44
211 7 130 55 254 89 350 96 79 6 140 -1 351 -41 44 -8 154 -18 245 -22 145 -5
170 -4 202 11 24 12 68 19 130 21 114 4 247 37 377 94 51 23 99 40 105 38 6
-3 -1 -9 -16 -15 -33 -14 -45 -32 -27 -43 8 -5 57 -9 110 -9 53 0 111 -3 128
-6 59 -12 42 -38 -136 -212 -192 -187 -260 -242 -339 -271 -64 -24 -227 -48
-264 -38 -14 4 -61 34 -105 68 -119 91 -251 148 -310 133 -33 -8 -37 -26 -14
-68 17 -33 18 -37 3 -43 -50 -19 -257 30 -405 97 -175 79 -382 122 -589 123
-69 0 -144 -5 -167 -12 -54 -15 -103 -56 -103 -86 0 -45 37 -58 220 -80 239
-29 405 -70 402 -100 0 -5 -18 -13 -39 -17 -21 -4 -72 -14 -114 -22 -150 -28
-275 -93 -384 -201 -73 -72 -105 -123 -105 -170 0 -74 49 -99 190 -100 103 0
109 1 275 59 139 49 184 60 250 64 61 3 85 0 100 -12 31 -23 11 -44 -105 -106
-102 -54 -170 -106 -170 -129 0 -7 17 -19 38 -28 48 -20 161 -13 339 22 184
35 285 45 481 45 94 0 172 -1 173 -2 1 -2 4 -58 8 -124 8 -139 20 -168 73
-178 19 -3 58 -22 88 -41 63 -41 98 -44 127 -12 28 31 34 50 43 149 14 149 79
251 193 304 52 24 158 33 183 16 20 -13 23 -54 9 -146 -26 -167 -90 -380 -180
-596 -29 -69 -55 -135 -59 -147 -3 -13 -9 -33 -12 -45 -6 -21 -5 -22 11 -8 55
45 202 438 270 720 25 107 52 215 59 240 l12 45 104 33 c304 95 521 184 677
278 118 71 168 108 301 223 139 121 155 124 156 35 1 -52 -19 -72 -30 -30 -7
29 -38 36 -48 10 -3 -9 -6 -48 -6 -87 0 -101 -8 -109 -61 -64 -66 57 -72 53
-85 -56 -7 -64 -10 -67 -90 -87 -34 -8 -43 -16 -51 -42 -9 -32 -10 -33 -60
-30 l-52 3 -7 -38 c-3 -21 -13 -46 -22 -56 -14 -16 -16 -16 -34 0 -27 24 -47
9 -83 -64 -16 -34 -33 -62 -37 -62 -4 -1 -10 19 -14 44 -3 25 -9 45 -13 45 -3
-1 -26 -28 -50 -60 -25 -33 -46 -59 -47 -57 -1 1 2 27 7 57 12 74 -4 87 -31
26 -11 -26 -20 -52 -20 -57 0 -5 -4 -9 -9 -9 -6 0 -11 17 -13 38 -5 60 -29 47
-58 -33 -26 -73 -43 -86 -48 -38 -8 84 -30 96 -61 36 -28 -56 -88 -247 -112
-360 -30 -142 -82 -308 -146 -468 -56 -142 -75 -215 -55 -215 17 0 46 48 99
170 65 147 115 299 153 471 17 75 38 145 45 155 13 17 14 15 15 -28 0 -25 -7
-82 -15 -125 -17 -89 -19 -133 -6 -133 19 0 52 70 92 194 22 69 45 126 51 126
6 0 7 -33 3 -96 -10 -126 4 -123 65 14 l45 102 3 -73 c3 -94 9 -110 27 -77 8
14 14 33 15 43 0 23 8 22 30 -5 16 -20 20 -21 35 -8 10 8 29 39 41 68 33 73
45 67 42 -22 -3 -75 4 -98 23 -79 5 5 25 61 43 123 19 62 41 119 49 128 14 14
17 12 23 -12 7 -31 -3 -136 -17 -173 -5 -14 -8 -28 -5 -30 11 -12 38 52 55
131 10 47 21 90 25 93 14 14 26 -22 26 -77 0 -63 14 -95 30 -70 11 17 40 139
40 167 0 10 -7 29 -16 41 -14 20 -14 22 4 22 29 0 42 -48 42 -147 0 -93 13
-107 36 -39 11 30 44 242 44 278 0 4 4 8 10 8 15 0 30 -70 30 -144 0 -49 3
-67 11 -59 16 16 38 111 45 193 7 94 -2 109 -76 121 -60 9 -84 24 -55 35 21 8
100 -11 132 -32 44 -28 55 -59 63 -174 5 -60 12 -115 16 -121 13 -22 26 22 32
106 8 144 32 141 51 -6 14 -112 29 -144 138 -309 177 -267 315 -530 422 -805
100 -258 145 -427 161 -606 10 -123 17 -136 104 -226 55 -58 66 -63 66 -33 0
29 -46 95 -76 108 -33 16 -42 43 -53 165 -18 188 -128 564 -221 753 -28 56
-50 108 -50 116 0 59 -292 552 -397 671 l-46 51 6 115 c5 114 17 171 37 171 5
0 12 -12 16 -27 12 -54 15 -63 25 -63 6 0 10 26 9 63 -2 92 -2 91 14 78 8 -7
25 -51 37 -98 l23 -87 13 32 c21 52 43 36 57 -41 5 -29 16 -43 46 -63 50 -33
86 -105 63 -128 -4 -3 -23 10 -44 30 -42 41 -59 38 -59 -9 0 -38 25 -81 90
-157 104 -120 176 -254 190 -353 7 -45 15 -62 37 -81 39 -32 91 -138 102 -203
5 -31 18 -63 33 -81 45 -54 63 -167 26 -167 -35 0 -31 -18 14 -59 32 -29 50
-55 58 -85 14 -54 50 -295 50 -340 0 -29 -2 -32 -15 -21 -18 15 -20 13 -29
-17 -5 -16 1 -31 24 -57 41 -46 47 -70 54 -227 6 -132 -1 -205 -19 -203 -6 0
-33 35 -62 78 -29 42 -68 95 -87 117 -52 61 -64 94 -102 272 -78 374 -183 657
-242 657 -24 0 -6 -85 38 -175 59 -122 160 -497 160 -593 0 -55 47 -141 93
-173 21 -14 63 -61 93 -104 30 -44 65 -91 78 -105 59 -63 59 -67 42 -207 -26
-207 -21 -199 -75 -98 -47 87 -104 165 -122 165 -33 0 10 -91 104 -219 42 -57
47 -69 47 -118 0 -97 -34 -293 -51 -293 -5 0 -27 39 -49 87 -46 98 -84 153
-107 153 -23 0 -9 -41 52 -152 30 -53 61 -119 70 -146 20 -62 17 -116 -8 -120
-13 -3 -24 11 -43 54 -29 67 -104 184 -117 184 -14 0 1 -36 108 -260 56 -118
110 -240 120 -270 23 -74 109 -240 113 -218 2 9 -11 49 -27 88 -17 40 -31 84
-31 99 0 53 68 62 280 36 131 -16 171 -28 288 -90 110 -59 157 -97 199 -162
66 -103 119 -107 111 -8 -9 113 -98 224 -228 288 -114 56 -173 67 -395 78
-154 7 -207 13 -234 27 -59 28 -59 51 -7 363 87 526 103 710 86 1006 -17 315
-29 381 -138 763 -88 308 -89 315 -68 307 12 -5 16 0 16 18 0 14 4 25 8 25 16
0 194 -340 225 -430 9 -25 29 -78 46 -119 17 -41 40 -102 50 -135 11 -34 33
-95 50 -137 40 -100 80 -282 136 -619 51 -310 108 -556 159 -682 92 -228 176
-363 316 -512 37 -39 72 -81 78 -92 8 -14 9 -50 5 -103 -4 -54 -2 -81 4 -81
15 0 66 60 98 113 55 96 64 246 15 262 -15 5 -20 15 -20 41 0 31 -2 34 -30 34
-38 0 -46 19 -26 58 17 33 13 42 -21 42 -28 0 -29 5 -3 37 26 34 25 53 -2 53
-33 0 -68 11 -68 21 0 4 12 14 28 21 15 7 28 23 30 35 5 34 27 34 68 2 44 -35
69 -36 132 -7 78 37 272 247 272 295 0 31 -32 9 -56 -39 -14 -28 -49 -75 -76
-105 -73 -76 -198 -134 -198 -91 0 17 130 146 215 214 46 37 92 66 110 68 190
29 308 38 345 26 37 -12 41 -11 70 14 46 39 60 34 60 -18 0 -25 4 -48 10 -51
10 -6 42 24 73 69 21 31 28 32 58 7 l23 -19 -37 -41 c-20 -23 -37 -46 -37 -51
0 -19 32 -23 59 -8 19 12 32 13 49 5 30 -14 37 -4 18 25 -32 49 17 51 131 4
78 -32 249 -128 296 -166 l22 -18 -27 -55 c-27 -52 -34 -77 -22 -77 19 0 44
24 44 44 0 26 29 56 54 56 10 0 50 -10 89 -22 71 -21 73 -21 175 -4 56 9 107
14 112 11 6 -3 10 -25 10 -48 0 -23 9 -59 20 -79 19 -36 19 -36 -1 -62 -25
-32 -37 -33 -41 -3 -2 12 -9 22 -17 22 -31 0 -21 -28 28 -76 59 -58 81 -96
109 -194 51 -173 121 -667 104 -730 -5 -17 -23 -40 -42 -53 l-34 -23 -11 33
c-10 32 -12 33 -63 33 -67 -1 -93 -24 -96 -85 -2 -58 -22 -62 -36 -8 -17 63
-53 113 -105 144 -41 24 -52 26 -118 20 -39 -3 -90 -8 -113 -12 -28 -4 -62 1
-108 15 -78 24 -112 26 -168 9 -49 -14 -80 -46 -124 -122 -40 -69 -43 -108
-14 -191 27 -77 25 -84 -9 -51 -39 37 -46 19 -15 -39 13 -26 22 -50 19 -53
-10 -10 -75 61 -86 96 -15 46 -5 102 36 193 50 111 46 138 -11 77 -17 -18 -41
-50 -54 -72 -28 -47 -65 -64 -159 -72 -67 -6 -71 -6 -71 14 0 11 16 61 35 111
19 49 35 98 35 107 0 27 -107 211 -136 233 -31 24 -41 20 -59 -22 -12 -29 -11
-32 19 -61 22 -21 40 -54 55 -102 28 -90 26 -118 -11 -122 -33 -4 -33 -8 -11
-78 14 -45 14 -55 3 -69 -29 -35 -178 21 -198 74 -7 17 -17 46 -24 63 -23 61
-74 106 -147 129 -56 18 -97 22 -276 26 -115 3 -224 1 -241 -3 -21 -6 -58 -41
-123 -117 l-92 -108 -112 6 c-226 12 -333 37 -398 93 -33 28 -39 40 -39 72 0
22 8 47 19 61 l19 24 69 -35 c61 -31 78 -35 168 -38 75 -3 110 0 138 11 20 9
37 20 37 26 0 5 -25 13 -57 17 l-56 7 27 14 c20 10 25 18 18 25 -8 8 -25 6
-59 -6 -134 -48 -170 -46 -189 12 -5 17 -15 37 -21 43 -29 29 -106 -34 -165
-135 -30 -51 -44 -57 -57 -23 -33 84 -49 112 -87 147 -138 127 -397 162 -462
63 -13 -21 -13 -23 4 -23 11 0 45 9 78 19 57 17 61 17 148 0 115 -24 166 -47
216 -97 66 -66 81 -166 38 -257 -55 -118 -189 -160 -266 -83 -27 26 -35 49
-42 118 -5 40 -33 35 -84 -14 -75 -75 -114 -72 -198 13 l-47 48 19 49 c48 123
33 158 -21 47 l-32 -68 -45 1 c-25 0 -76 6 -114 12 -100 16 -149 3 -222 -59
-74 -63 -94 -74 -169 -89 -63 -13 -122 -39 -165 -72 l-25 -19 -16 39 c-9 21
-36 54 -60 73 -23 19 -60 51 -83 73 -23 21 -60 47 -84 57 -53 23 -61 43 -32
75 31 32 82 32 161 -2 72 -30 116 -29 111 1 -13 80 -226 85 -414 10 -286 -114
-216 -430 103 -470 76 -9 149 11 283 79 103 53 246 106 285 106 10 0 49 23 87
50 92 67 160 92 252 92 96 0 166 -32 217 -102 19 -26 50 -57 69 -68 22 -13 35
-30 39 -49 9 -47 77 -119 77 -82 0 5 -11 27 -25 47 -31 45 -32 78 -5 87 30 10
62 -15 106 -82 46 -69 68 -75 72 -20 2 22 10 41 18 44 24 9 74 -18 80 -43 3
-13 13 -29 21 -36 14 -11 15 -9 9 19 -6 27 -3 34 26 56 99 74 134 75 187 3 68
-92 80 -87 26 10 -84 151 -3 264 115 159 14 -12 47 -30 75 -40 35 -13 69 -38
116 -87 76 -78 123 -102 228 -118 72 -12 105 -8 59 5 -13 4 -69 29 -124 56
-98 46 -126 70 -101 86 20 12 300 21 315 10 7 -6 31 -41 52 -78 51 -87 113
-141 225 -194 172 -83 289 -84 318 -2 4 9 39 32 80 51 85 39 147 89 147 120 0
48 27 58 95 38 67 -19 137 -55 178 -92 38 -33 57 -88 57 -164 0 -84 38 -130
50 -60 7 39 32 37 42 -4 15 -56 21 -35 15 51 -7 105 -19 131 -68 150 -43 17
-49 35 -20 61 14 13 33 16 72 14 l54 -3 31 -63 c68 -135 116 -154 262 -100 61
23 161 110 186 162 25 53 21 108 -11 142 -31 34 -42 20 -19 -25 21 -39 20 -67
-4 -118 -59 -131 -141 -121 -215 27 -67 134 -14 233 126 233 71 0 119 -28 157
-91 22 -39 27 -59 27 -112 -1 -81 -25 -131 -92 -189 -45 -39 -46 -41 -18 -34
49 12 84 7 108 -16 13 -11 26 -21 30 -21 4 0 4 25 1 56 -7 54 -6 56 13 46 26
-14 89 -134 103 -195 7 -35 7 -54 -1 -69 -12 -22 -12 -22 -35 7 -12 16 -30 48
-39 72 -20 51 -33 55 -37 12 -2 -18 -11 -37 -21 -43 -15 -9 -22 -6 -41 17 -20
25 -24 26 -36 13 -19 -24 -126 -53 -283 -78 -118 -18 -185 -22 -402 -22 -440
-1 -702 37 -980 144 -56 22 -175 60 -265 85 -90 26 -182 56 -204 67 -38 20
-52 20 -345 15 -319 -6 -347 -9 -591 -64 l-125 -28 -370 1 c-523 1 -697 17
-985 89 -74 19 -187 43 -250 54 -185 33 -593 70 -828 76 -124 3 -138 5 -153
24 -31 38 -32 89 -5 195 15 54 26 115 26 136 0 51 8 70 30 70 40 0 44 -24 26
-145 -21 -137 -12 -195 29 -195 13 0 28 8 34 18 5 9 11 90 13 179 2 103 8 167
15 174 9 9 20 7 45 -8 43 -27 65 -31 200 -43 74 -6 137 -18 183 -34 76 -27
243 -48 303 -39 20 3 46 12 57 19 11 7 47 18 80 24 62 13 180 54 390 136 177
69 499 183 585 207 66 18 103 21 315 21 280 1 356 -10 725 -98 249 -60 300
-69 300 -55 0 13 -28 23 -210 75 -146 42 -271 85 -296 102 -6 4 -18 21 -27 37
-16 31 -87 108 -94 101 -2 -2 4 -22 13 -45 9 -22 13 -48 10 -57 -6 -15 -8 -15
-27 2 -12 11 -29 35 -39 54 -22 43 -55 74 -69 66 -6 -4 -8 -25 -4 -53 5 -41 4
-45 -13 -40 -94 28 -285 40 -429 27 -241 -21 -409 -62 -560 -135 -49 -23 -103
-46 -120 -50 -16 -3 -77 -28 -135 -55 -58 -26 -123 -51 -145 -55 -22 -4 -105
-22 -185 -40 -247 -57 -415 -71 -415 -35 0 8 9 16 20 18 43 8 120 78 151 138
17 32 47 90 67 127 43 79 45 105 16 207 -29 105 -36 152 -54 340 -15 161 -27
232 -79 455 -16 70 -26 140 -26 191 0 59 -4 85 -15 94 -52 43 -52 -95 0 -325
29 -130 45 -262 35 -290 -11 -31 -27 30 -50 191 -21 144 -36 204 -50 204 -26
0 -26 -91 0 -219 27 -136 45 -181 85 -218 l35 -32 -1 -118 c-1 -104 3 -130 30
-222 33 -111 41 -215 20 -268 -12 -29 -13 -28 -23 20 -14 61 -38 22 -61 -100
-15 -76 -29 -113 -45 -113 -5 0 -3 19 5 41 17 47 19 116 6 151 -16 42 -73 88
-130 105 -143 41 -271 -44 -304 -203 -17 -84 -24 -91 -56 -61 -14 13 -50 37
-79 53 -104 55 -158 177 -187 424 -39 330 3 680 111 921 18 41 52 142 74 225
46 165 64 213 108 276 16 24 66 120 110 213 44 94 126 265 182 380 56 116 120
250 141 298 55 124 51 167 -7 75 -14 -22 -119 -221 -233 -441 -114 -221 -231
-442 -259 -492 -65 -115 -92 -184 -103 -264 -5 -37 -37 -132 -74 -225 -66
-167 -101 -280 -132 -426 -25 -120 -25 -412 0 -573 11 -66 22 -212 26 -331 l7
-213 29 -43 c75 -106 89 -155 61 -221 -8 -19 -24 -97 -35 -174 -29 -194 -38
-235 -73 -353 -36 -119 -32 -143 30 -169 30 -13 61 -14 167 -9 72 3 204 9 294
12 l163 7 -4 -99 c-8 -166 -21 -178 -196 -178 l-124 -1 -26 -32 c-15 -17 -35
-43 -45 -57 -21 -31 -113 -61 -214 -71 -93 -10 -201 9 -250 42 -88 60 -294
133 -377 133 -51 0 -107 -27 -124 -60 -31 -61 16 -168 123 -276 83 -84 144
-126 325 -224 74 -40 142 -77 151 -83 11 -7 90 -2 250 14 129 12 295 23 369
23 148 1 183 -8 209 -55 13 -24 13 -34 -8 -101 -26 -90 -20 -115 36 -152 50
-32 255 -106 312 -113 90 -10 136 32 136 124 0 58 10 70 77 92 42 14 94 68
104 107 4 15 1 92 -6 173 -9 112 -10 174 -1 266 14 148 20 171 74 265 l43 75
89 -1 c81 -1 106 -6 240 -52 187 -64 282 -77 500 -69 269 10 460 54 691 158
71 32 138 59 147 59 9 0 31 9 49 20 52 30 164 42 342 38 130 -4 174 -9 227
-26 95 -31 98 -54 19 -125 -53 -49 -67 -48 -62 3 6 61 -18 53 -61 -21 -34 -59
-78 -96 -123 -105 l-36 -7 38 -38 37 -38 -81 -88 c-155 -169 -137 -158 -307
-193 -217 -45 -275 -75 -275 -140 0 -85 155 -137 378 -127 186 8 295 41 420
126 204 139 392 102 432 -86 16 -72 40 -99 101 -112 123 -27 233 -6 245 46 20
92 35 111 139 177 66 42 90 85 88 157 -1 54 -8 76 -86 261 -6 15 -8 30 -5 34
4 3 49 -4 100 -16 141 -33 318 -37 567 -11 225 23 517 28 634 10 40 -6 106
-21 147 -34 41 -13 97 -26 124 -30 28 -5 79 -22 115 -39 60 -27 77 -31 186
-34 247 -8 497 67 537 161 10 24 13 95 13 282 -1 268 -6 319 -61 620 -18 105
-48 277 -64 384 -17 107 -40 231 -51 275 -45 178 -135 432 -209 592 -106 230
-93 301 70 392 190 105 230 167 195 303 -9 35 -90 218 -181 407 -91 189 -183
380 -203 425 -21 45 -56 110 -78 144 -22 34 -50 90 -63 125 -13 35 -54 128
-91 208 -37 80 -73 166 -79 190 -7 25 -39 106 -72 180 -33 74 -75 175 -94 223
-19 48 -48 109 -65 134 -18 26 -47 80 -64 122 -18 42 -55 112 -82 156 -28 44
-60 100 -73 125 -12 25 -33 56 -45 70 -13 14 -41 55 -62 92 -41 73 -180 276
-303 442 -90 122 -350 385 -477 483 -62 48 -152 101 -280 166 -354 179 -537
247 -750 277 -76 10 -163 24 -193 31 -38 8 -114 10 -245 6 -244 -8 -410 -30
-659 -88 -155 -36 -197 -36 -210 3 -8 21 -6 32 7 46 9 10 17 23 17 29 0 12
-107 204 -193 345 -58 96 -364 700 -450 890 -20 43 -49 97 -65 121 -28 40 -72
153 -72 184 0 30 -51 111 -102 160 -106 103 -281 188 -517 253 -132 36 -162
50 -260 125 -95 72 -118 81 -282 115 -160 33 -190 45 -249 97 -25 21 -61 50
-80 63 -48 33 -50 37 -50 105 0 49 15 136 23 135 1 0 38 -7 82 -15 44 -8 116
-14 161 -15 70 0 89 4 141 30 197 98 300 365 258 670 -36 270 -55 425 -70 575
-19 199 -30 254 -66 330 -15 33 -33 82 -39 109 -13 61 -33 90 -134 195 -109
112 -204 190 -389 319 l-155 109 -232 6 c-177 5 -237 10 -258 21 -87 49 -118
59 -196 62 -45 2 -90 0 -102 -5z m208 -60 c22 -8 26 -20 47 -163 29 -204 37
-328 22 -357 -16 -29 -36 -14 -52 40 -10 32 -9 42 5 64 14 21 15 29 5 41 -23
28 -83 1 -100 -43 -13 -34 -48 -43 -159 -43 -131 0 -150 7 -150 60 0 50 15 80
38 80 9 0 51 -13 92 -30 77 -30 120 -37 120 -20 0 5 -33 34 -72 63 -136 101
-183 167 -153 213 14 22 47 35 128 49 22 3 47 17 59 31 19 21 30 24 84 24 35
0 73 -4 86 -9z m513 -66 c28 -8 76 -30 107 -48 110 -67 363 -253 415 -306 103
-104 208 -286 269 -466 21 -64 27 -100 28 -181 1 -94 -1 -103 -25 -135 -30
-39 -60 -129 -79 -235 -18 -101 -8 -111 31 -29 29 62 33 67 39 45 3 -14 18
-31 32 -38 27 -12 27 -13 21 -102 -6 -85 -5 -92 17 -115 21 -23 22 -30 17
-117 -9 -154 -71 -346 -126 -389 -14 -11 -27 -16 -28 -12 -2 5 8 41 23 79 40
105 74 224 74 258 0 48 -15 21 -63 -114 -61 -175 -96 -243 -127 -251 -42 -11
-183 -9 -219 4 -73 25 -101 119 -52 171 l24 26 -33 0 c-56 0 -92 54 -58 88 9
9 7 12 -10 12 -26 0 -42 27 -42 72 1 30 2 31 14 15 9 -12 16 -14 21 -7 11 18
-5 67 -36 109 -34 47 -35 53 -13 86 17 26 34 33 34 13 0 -6 13 -32 30 -58 23
-37 50 -120 50 -158 0 -3 9 3 19 12 29 26 41 11 41 -50 0 -30 4 -54 10 -54 13
0 37 38 45 73 4 15 12 30 17 33 20 13 29 -23 24 -96 l-5 -75 24 55 c23 52 48
148 60 233 7 46 25 44 42 -4 15 -43 10 -78 -32 -209 -41 -129 -46 -150 -34
-150 13 0 42 62 79 165 27 77 70 234 70 257 0 4 -13 5 -30 2 -39 -8 -47 11
-32 85 7 31 19 90 27 131 18 85 13 129 -10 110 -8 -7 -15 -18 -15 -24 0 -7 -7
-36 -15 -64 -31 -104 -59 -67 -175 236 -47 121 -79 152 -100 96 -17 -44 -13
-84 9 -84 38 0 42 -67 7 -105 -14 -15 -27 -39 -30 -53 -7 -31 6 -87 20 -87 5
0 18 27 29 60 11 33 25 60 30 60 5 0 16 -13 23 -28 8 -15 25 -32 38 -37 21 -8
24 -16 24 -61 0 -36 6 -58 20 -76 15 -19 20 -41 20 -83 0 -59 -16 -120 -31
-120 -16 0 -29 39 -29 89 0 38 -5 53 -20 64 -10 7 -24 25 -29 40 -13 34 -46
36 -55 5 -15 -57 -7 -99 24 -126 17 -15 30 -36 30 -50 0 -26 -26 -82 -39 -82
-15 0 -31 26 -37 61 -4 19 -16 45 -28 59 -13 14 -30 38 -40 53 -9 15 -28 32
-42 37 -34 13 -40 36 -20 76 21 45 22 43 -19 59 -26 12 -37 23 -44 52 -6 21
-33 77 -61 126 -27 48 -50 90 -50 92 0 3 -16 30 -37 60 -35 54 -36 57 -23 95
16 48 9 105 -20 165 -22 45 -64 84 -77 71 -11 -10 15 -79 47 -129 23 -33 30
-55 28 -79 -4 -43 -19 -42 -41 4 -10 21 -32 47 -48 59 -17 12 -44 46 -62 78
-17 31 -71 97 -120 148 l-89 92 31 47 c31 48 55 115 66 187 7 43 29 57 53 33
9 -9 37 -55 62 -103 43 -83 71 -115 86 -100 4 3 -8 41 -26 83 -30 68 -34 87
-35 173 -1 53 -5 125 -10 160 l-8 64 64 -7 c35 -4 87 -13 114 -21z m-221 -35
c49 -18 44 -115 -5 -115 -20 0 -24 4 -21 27 2 22 -1 25 -17 21 -10 -2 -22 0
-25 6 -4 6 -16 11 -27 11 -13 0 -19 7 -19 23 0 13 3 27 7 30 10 10 78 8 107
-3z m-917 -368 c182 -63 205 -92 98 -124 -34 -10 -66 -27 -76 -39 -13 -18 -22
-21 -52 -15 -39 7 -49 23 -41 66 5 25 -1 36 -45 83 -28 30 -51 57 -51 60 0 16
63 4 167 -31z m631 -106 c34 -18 80 -66 63 -66 -7 0 -26 11 -43 25 -22 18 -41
25 -74 25 -41 0 -53 8 -37 23 11 12 63 8 91 -7z m-78 -101 c7 -8 21 -15 32
-15 10 0 30 -12 44 -27 21 -23 28 -25 44 -15 27 17 28 16 38 -20 7 -27 14 -34
43 -39 19 -3 44 -11 56 -17 12 -7 33 -12 46 -12 26 0 117 -73 117 -95 0 -7 25
-50 55 -95 57 -86 58 -92 13 -114 -42 -21 -37 -99 18 -300 18 -63 22 -92 14
-100 -7 -7 -14 -6 -24 4 -15 16 -86 196 -107 270 -17 60 -93 170 -189 273 -43
46 -95 111 -115 145 -35 61 -81 105 -120 115 -11 3 -33 8 -50 12 l-30 7 35 18
c43 23 64 25 80 5z m888 -1486 c5 -81 -21 -154 -43 -119 -3 6 -15 10 -26 10
-24 0 -24 15 1 33 24 17 40 58 40 103 0 59 25 35 28 -27z m-39 -524 c43 -47
51 -65 26 -65 -20 0 -95 73 -95 93 0 29 26 19 69 -28z m-1292 -71 c10 -27 -15
-63 -61 -84 -66 -32 -81 -52 -78 -111 2 -47 1 -49 -25 -49 -15 0 -37 9 -49 21
-26 25 -44 18 -44 -17 0 -14 -5 -34 -11 -45 -8 -16 -13 -18 -25 -8 -8 6 -14
20 -14 30 0 10 -11 26 -25 35 -35 23 -31 45 16 92 108 108 295 189 316 136z
m1561 -83 c42 -62 53 -101 29 -101 -31 0 -134 147 -123 176 10 25 43 -2 94
-75z m-284 73 c9 -3 37 -42 63 -86 50 -84 108 -158 124 -158 5 0 -10 36 -33
80 -32 61 -39 83 -30 92 19 19 48 -16 97 -115 51 -100 53 -112 26 -127 -38
-20 -90 -12 -118 18 -29 30 -150 223 -164 260 -14 36 -1 50 35 36z m386 -87
c44 -59 47 -67 26 -67 -16 0 -60 48 -82 91 -26 52 11 35 56 -24z m175 2 c11
-10 37 -25 58 -34 41 -17 41 -35 0 -35 -34 0 -87 33 -101 64 -18 41 0 43 43 5z
m-94 0 c38 -27 55 -57 39 -73 -8 -8 -20 -2 -46 26 -19 21 -34 45 -34 53 0 20
6 19 41 -6z m-468 -78 c78 -92 111 -158 105 -207 -6 -54 -34 -41 -71 33 -19
37 -55 93 -81 124 -46 57 -80 121 -69 133 19 19 49 -3 116 -83z m-105 -18 c44
-57 87 -132 107 -188 23 -61 42 -85 69 -85 12 0 61 16 109 36 141 57 225 57
247 -2 8 -19 17 -24 44 -24 48 0 65 8 82 41 19 37 49 38 66 2 12 -26 18 -28
85 -31 92 -4 140 14 145 55 5 42 34 42 54 0 33 -70 7 -96 -163 -161 -164 -63
-281 -131 -260 -153 4 -3 46 14 95 39 209 109 383 123 517 39 33 -20 76 -43
95 -51 94 -37 116 -77 104 -198 -6 -70 -5 -76 9 -63 9 7 19 23 23 34 21 69 47
127 56 127 11 0 8 -55 -8 -160 -7 -41 -6 -44 9 -32 9 8 24 33 33 58 9 24 21
44 25 44 14 0 11 -38 -11 -128 -21 -88 -26 -152 -11 -152 11 0 25 35 47 118
18 67 46 112 70 112 18 0 18 -12 -1 -57 -21 -50 -19 -54 16 -36 27 14 33 14
46 0 13 -13 13 -18 -1 -45 -40 -77 -98 -387 -69 -369 5 4 22 50 38 104 58 208
71 230 104 171 14 -25 14 -30 -7 -66 -40 -72 -91 -342 -64 -342 11 0 32 61 73
218 22 85 34 105 50 81 14 -20 5 -92 -25 -194 -14 -49 -24 -96 -21 -104 10
-25 26 3 42 73 16 72 36 92 59 61 19 -26 17 -58 -5 -97 -19 -32 -61 -212 -61
-261 0 -14 4 -28 10 -32 16 -10 37 47 54 144 18 101 22 114 37 106 12 -8 11
-93 -2 -192 -6 -44 -9 -93 -7 -109 l3 -29 13 23 c8 13 16 57 19 98 6 78 21
106 43 79 9 -11 11 -42 7 -116 -5 -106 -2 -113 23 -47 15 41 43 68 56 55 4 -3
-5 -55 -20 -115 -14 -60 -26 -126 -26 -146 0 -68 24 -34 52 73 15 57 29 105
32 108 3 3 11 3 19 0 15 -6 14 -20 -18 -210 -14 -81 -16 -110 -7 -119 13 -13
35 31 52 107 12 55 45 122 53 109 3 -5 2 -30 -3 -54 -18 -95 -31 -250 -22
-266 14 -26 28 3 51 110 11 55 25 104 30 109 19 19 24 -47 13 -147 -7 -56 -12
-117 -12 -135 0 -57 20 -23 32 55 11 71 25 110 36 99 3 -3 9 -53 12 -110 5
-98 12 -126 26 -112 3 3 8 24 11 47 4 31 10 40 22 38 13 -3 16 -22 19 -126 2
-97 6 -124 17 -129 20 -7 19 -62 0 -83 -8 -9 -18 -45 -21 -81 -5 -49 -11 -69
-29 -84 -32 -28 -125 -210 -125 -244 0 -33 -17 -50 -89 -86 -29 -14 -76 -50
-105 -79 -71 -72 -295 -204 -402 -236 -35 -10 -45 -10 -73 5 -18 9 -39 14 -48
11 -12 -5 -12 -10 3 -35 18 -30 13 -67 -9 -58 -6 3 -29 13 -51 22 -37 16 -38
16 -31 -2 19 -48 18 -53 -11 -53 -16 0 -51 14 -79 30 -50 30 -95 39 -95 20 0
-6 26 -27 57 -47 52 -33 55 -37 38 -49 -31 -23 -62 -16 -112 23 -62 47 -132
78 -145 65 -12 -12 14 -37 88 -85 26 -18 47 -36 47 -42 -1 -15 -131 -56 -183
-57 -40 -1 -56 6 -128 55 -46 32 -93 57 -105 57 -18 -1 -8 -14 51 -69 73 -69
89 -101 52 -101 -24 0 -72 29 -182 111 -44 33 -83 57 -86 54 -3 -3 36 -47 86
-99 86 -87 110 -126 79 -126 -20 0 -92 49 -197 134 -82 67 -156 116 -175 116
-19 0 8 -34 106 -130 135 -133 138 -157 14 -110 -74 28 -76 28 -88 -10 -25
-73 -155 -77 -194 -6 -15 27 0 62 43 103 18 19 34 43 34 54 0 25 -50 55 -113
69 -72 15 -84 25 -92 72 -6 34 -17 51 -53 83 -95 84 -121 112 -128 139 -27
108 222 -19 287 -146 34 -67 112 -84 234 -53 153 40 266 116 420 281 202 216
599 555 727 620 26 13 48 28 48 33 0 19 -40 53 -142 120 -141 93 -173 123
-194 179 -10 26 -36 76 -58 112 -21 36 -53 90 -69 120 -17 30 -47 78 -68 105
-20 28 -44 65 -53 82 -9 19 -27 35 -41 39 -15 4 -25 13 -25 23 0 28 -58 88
-248 260 -99 88 -190 175 -204 193 -36 47 -73 123 -94 193 -25 84 -30 85 -26
5 4 -70 4 -70 -22 -70 l-27 0 17 -32 c14 -27 71 -106 147 -205 7 -9 5 -13 -5
-13 -8 0 -41 23 -72 50 -31 28 -65 50 -74 50 -10 -1 23 -39 86 -98 56 -53 111
-110 122 -127 27 -40 27 -115 0 -146 l-19 -24 -1 58 c0 31 -4 57 -10 57 -19 0
-68 -153 -84 -265 l-6 -40 22 44 c13 25 29 47 36 49 19 6 15 -36 -13 -132 -32
-110 -31 -118 5 -76 l31 35 -5 -40 c-3 -22 -8 -55 -12 -72 -5 -26 -3 -33 9
-33 17 0 57 87 57 124 0 27 44 85 56 73 8 -7 1 -38 -36 -175 -41 -146 13 -114
60 35 14 47 43 79 59 68 17 -10 13 -27 -18 -96 -32 -70 -46 -129 -31 -129 14
0 37 40 45 78 9 43 50 55 77 22 10 -12 18 -28 18 -36 0 -19 19 -27 35 -14 19
16 30 -60 22 -162 -4 -43 -3 -78 1 -78 5 0 18 18 31 40 26 47 41 51 41 13 0
-48 -20 -102 -39 -108 -11 -3 -42 3 -71 14 -58 22 -72 20 -95 -15 -24 -37 -35
-29 -33 25 3 55 -9 74 -111 184 -102 110 -171 197 -193 243 -22 43 -22 44 -4
113 10 38 16 77 13 87 -4 17 -6 16 -12 -4 -16 -50 -51 -107 -67 -110 -10 -2
-39 17 -66 42 -27 25 -52 46 -56 46 -14 0 46 -101 121 -200 99 -133 117 -169
110 -227 -5 -47 -18 -69 -35 -59 -5 3 -20 33 -32 67 l-23 62 -17 -44 c-26 -66
-45 -59 -101 36 -49 82 -98 135 -125 135 -13 0 -11 -7 10 -32 49 -60 105 -149
111 -177 7 -33 34 -60 102 -105 65 -43 75 -73 39 -126 -26 -39 -51 -58 -62
-48 -2 3 -1 24 4 46 13 54 4 90 -25 109 -19 13 -26 13 -36 4 -9 -10 -7 -16 11
-28 28 -20 29 -61 1 -96 -28 -37 -162 -79 -254 -80 -83 -2 -123 16 -149 65
-10 19 -37 150 -65 319 l-47 286 76 229 c80 240 144 403 206 526 38 77 83 143
91 134 9 -8 -58 -208 -93 -277 -64 -129 -173 -480 -176 -571 -3 -66 12 -352
23 -453 17 -158 49 -236 83 -203 9 9 45 18 91 21 81 7 119 21 112 40 -2 7 -18
11 -35 9 -24 -2 -32 2 -37 18 -6 20 -8 21 -26 4 -15 -13 -22 -14 -33 -5 -32
26 -61 156 -72 320 -4 56 -11 101 -17 101 -10 0 -3 -348 9 -437 6 -43 -7 -60
-20 -27 -42 109 -23 791 23 837 19 19 19 4 0 -88 -20 -97 -26 -223 -9 -194 16
27 38 148 50 270 6 63 17 125 24 139 7 14 14 42 14 62 1 20 13 65 28 100 38
90 101 286 129 403 l24 100 123 117 c168 158 143 172 -49 26 -106 -80 -133
-114 -233 -293 -40 -71 -94 -166 -121 -210 -53 -87 -85 -173 -125 -330 -14
-55 -41 -158 -61 -229 -30 -110 -35 -140 -30 -195 11 -127 59 -406 83 -480 29
-93 31 -116 7 -107 -54 21 -171 97 -221 145 -77 73 -114 131 -117 180 -2 31
-14 54 -51 102 -68 87 -125 149 -135 149 -21 0 -6 -51 31 -109 59 -91 150
-265 150 -286 0 -16 -6 -13 -35 15 -40 38 -48 37 -39 -9 9 -44 81 -106 190
-163 98 -51 256 -108 301 -108 62 0 72 -61 21 -131 l-32 -44 -10 48 -11 47
-28 -35 c-34 -43 -73 -49 -63 -10 10 38 -18 32 -51 -11 l-27 -36 -17 21 c-17
21 -39 28 -39 14 0 -5 -4 -14 -9 -22 -7 -11 -14 -8 -34 15 -23 25 -28 27 -46
17 -12 -7 -37 -13 -57 -13 -29 0 -44 7 -70 35 -39 42 -52 44 -60 8 -10 -49
-23 -73 -40 -73 -14 0 -16 7 -10 43 17 102 17 138 3 212 -29 147 -29 152 -11
170 16 16 15 26 -19 163 -20 81 -44 199 -53 262 -9 63 -20 140 -24 170 -5 30
-9 89 -9 130 -2 107 -12 210 -22 210 -5 0 -9 -37 -10 -82 -1 -114 -18 -69 -26
67 -5 95 1 158 29 288 24 112 36 10 19 -153 -8 -72 -8 -76 17 -98 30 -28 42
-17 42 41 0 21 9 55 19 75 31 61 67 269 86 497 6 68 5 83 -9 94 -9 7 -16 19
-16 26 0 35 178 274 273 368 61 60 88 62 121 8 56 -88 72 -63 22 34 -40 78
-42 101 -13 119 16 9 25 4 61 -38 25 -29 48 -46 54 -42 12 7 -1 38 -50 114
-25 41 -13 62 26 44 33 -15 67 -78 105 -193 36 -110 54 -140 71 -122 22 21
-37 181 -96 260 -29 39 -47 82 -40 100 10 24 44 13 74 -24z m1210 -205 c16
-16 15 -45 -2 -51 -18 -7 -66 29 -66 49 0 17 51 19 68 2z m147 -22 c48 -26 61
-38 63 -61 5 -40 -15 -56 -36 -28 -9 12 -36 26 -60 33 -45 11 -79 49 -68 75 8
23 35 18 101 -19z m155 -108 c21 -34 27 -98 10 -98 -14 0 -50 75 -50 105 0 34
16 31 40 -7z m-2492 -320 c30 -33 75 -127 68 -144 -8 -21 -48 -16 -76 9 -41
37 -100 106 -100 117 0 6 11 10 24 10 13 0 26 7 30 15 8 21 29 19 54 -7z m-74
-112 c28 -37 31 -189 3 -194 -12 -3 -19 5 -23 27 -8 41 -22 48 -33 19 -13 -34
-44 -58 -83 -64 -34 -6 -35 -5 -41 30 -7 46 8 100 46 159 45 73 89 80 131 23z
m3029 -443 c35 -74 77 -187 77 -205 0 -4 -4 -8 -10 -8 -19 0 -120 232 -120
276 0 32 19 10 53 -63z m-1284 -465 c-1 -46 -23 -103 -40 -103 -10 0 -13 10
-11 35 5 44 28 100 41 100 6 0 11 -15 10 -32z m-2784 -79 c116 -45 858 -412
922 -456 45 -31 89 -84 143 -176 19 -32 52 -74 73 -93 39 -36 41 -54 6 -54
-28 0 -75 -26 -83 -45 -14 -39 -5 -69 36 -113 l41 -45 -22 -18 c-30 -24 -120
-34 -190 -20 -32 6 -125 33 -207 61 -313 103 -432 121 -663 101 -80 -6 -157
-14 -171 -17 -14 -2 -32 0 -40 6 -13 9 -12 12 5 26 45 35 159 85 226 99 83 18
160 56 195 98 44 53 42 55 -96 83 -107 22 -195 21 -389 -5 -182 -25 -215 -26
-231 -6 -20 24 30 59 133 93 127 42 203 55 337 57 63 1 121 3 128 4 26 3 10
20 -34 37 -42 16 -58 17 -158 6 -61 -6 -145 -20 -186 -32 -123 -34 -180 -42
-240 -35 -63 7 -86 17 -76 34 17 27 196 103 346 146 l94 27 111 -16 c60 -9
147 -25 193 -36 173 -41 200 -14 57 58 -34 17 -104 56 -155 88 -104 63 -222
120 -259 126 -29 4 -47 29 -37 53 9 25 63 15 191 -36z m1158 -298 c21 -20 66
-76 99 -126 34 -49 83 -117 109 -151 75 -97 84 -119 84 -209 0 -67 -5 -90 -29
-143 -39 -84 -110 -149 -204 -185 -77 -31 -119 -32 -136 -4 -9 15 -5 23 25 50
20 18 52 41 70 52 19 11 34 27 34 35 0 8 -22 30 -50 48 -27 19 -54 40 -58 48
-12 21 10 44 40 44 13 0 37 7 53 15 43 22 41 61 -6 106 -41 39 -124 146 -124
160 0 5 17 9 39 9 90 0 78 69 -36 192 -24 26 -43 52 -43 57 0 5 12 19 27 30
33 27 56 21 106 -28z m4048 -26 c44 -39 69 -45 69 -15 0 32 27 35 68 6 51 -35
62 -33 62 9 0 19 4 35 10 35 5 0 37 -18 71 -40 34 -22 71 -40 81 -40 19 0 19
1 -1 29 -26 36 -27 51 -2 51 10 0 43 -28 76 -65 54 -62 85 -81 85 -51 0 7 -16
30 -35 51 -32 36 -37 55 -14 55 6 0 46 -34 89 -75 98 -93 117 -98 85 -22 -39
94 -4 88 74 -13 80 -103 115 -108 65 -8 -8 15 -14 32 -14 38 0 26 25 3 93 -87
104 -140 147 -137 62 4 -34 56 -44 93 -27 93 14 0 48 -42 106 -132 53 -83 76
-105 76 -74 0 7 -11 35 -25 61 -48 90 -19 71 98 -66 31 -36 37 -40 32 -19 -15
56 -17 80 -7 80 20 0 103 -106 143 -182 22 -43 44 -78 49 -78 22 0 20 25 -4
72 -30 57 -32 68 -11 68 18 0 66 -70 110 -162 35 -72 42 -98 27 -98 -4 0 -39
20 -77 44 -190 121 -245 151 -378 211 -80 35 -169 71 -198 80 -30 9 -79 27
-109 40 -164 72 -456 111 -928 124 -259 7 -305 11 -290 26 7 7 112 17 194 19
36 0 68 7 78 15 15 12 22 12 52 -2 19 -10 51 -17 70 -17 36 0 36 0 30 35 -6
29 -4 35 10 35 9 0 34 -16 55 -35z m-2013 -117 c-4 -70 2 -142 11 -157 8 -13
12 -13 26 -1 15 12 19 12 30 -3 7 -9 18 -17 24 -17 19 0 41 64 41 117 0 26 3
59 7 71 12 45 23 -1 23 -96 0 -68 4 -99 16 -117 23 -35 10 -45 -60 -45 -39 0
-69 -5 -82 -15 -31 -23 -51 -18 -75 21 -22 36 -22 37 -6 108 9 39 19 89 22
111 12 77 26 91 23 23z m448 -139 c39 -24 60 -54 44 -64 -19 -12 -130 54 -130
77 0 16 53 8 86 -13z m2206 -5 c15 -8 39 -11 55 -8 20 4 45 -3 87 -25 32 -17
69 -31 83 -31 14 0 41 -14 61 -31 38 -34 166 -99 193 -99 10 0 36 -16 60 -36
24 -19 65 -47 92 -61 61 -31 97 -65 97 -94 0 -27 -6 -24 -104 40 -139 91 -493
260 -651 311 -82 27 -102 39 -83 51 16 10 73 1 110 -17z m-506 -8 c97 -20 431
-126 579 -183 145 -56 363 -159 506 -238 239 -134 347 -224 589 -490 186 -205
235 -267 402 -516 325 -487 430 -718 677 -1484 75 -234 126 -440 186 -750 47
-241 56 -269 106 -302 66 -43 65 -95 -2 -161 -69 -69 -208 -122 -278 -106 -89
22 -476 213 -529 262 -24 23 -43 27 -207 44 -208 22 -241 20 -390 -15 -60 -15
-139 -30 -175 -33 l-65 -6 49 32 c70 45 319 296 345 347 45 90 20 84 -61 -13
-69 -84 -188 -191 -240 -217 -18 -8 -58 -27 -88 -41 -57 -26 -133 -93 -155
-136 -7 -14 -15 -46 -18 -73 -14 -102 -77 -177 -172 -202 -110 -28 -156 -30
-187 -5 -38 30 -36 66 7 129 56 80 46 90 -42 40 -30 -17 -57 -29 -60 -26 -8 9
31 68 71 106 37 36 47 71 22 71 -8 0 -35 -16 -60 -35 -26 -19 -48 -35 -51 -35
-17 0 2 36 44 86 28 32 52 66 55 77 9 35 -24 30 -72 -10 -62 -52 -72 -57 -72
-39 0 8 22 43 48 78 65 84 77 107 63 121 -8 8 -23 -2 -56 -37 -30 -33 -50 -46
-61 -42 -16 6 -15 10 52 123 15 25 16 35 7 44 -10 10 -20 4 -47 -25 -44 -49
-60 -41 -40 22 9 26 18 55 21 65 4 12 0 17 -16 17 -27 0 -26 13 3 86 27 67 25
82 -11 59 -45 -30 -56 -16 -28 37 35 65 33 88 -5 88 -29 0 -30 2 -28 36 1 22
-3 39 -12 44 -9 6 -14 27 -15 61 0 48 -2 54 -25 59 -23 6 -25 10 -25 65 l0 59
-39 8 c-58 12 -92 48 -46 48 44 0 16 92 -99 325 -91 184 -204 379 -336 580
-50 77 -98 151 -105 165 -7 14 -35 54 -62 89 -26 35 -73 114 -103 175 -29 61
-81 147 -115 191 -69 92 -75 109 -90 263 -11 112 -25 176 -51 240 -12 29 -12
34 8 54 19 18 27 20 55 12 60 -18 102 -111 134 -302 20 -115 30 -146 45 -136
26 16 -9 306 -51 426 -22 64 -25 98 -9 98 29 0 113 -273 125 -411 7 -66 16
-90 28 -71 3 5 8 57 12 115 4 59 10 107 14 107 4 0 13 -7 20 -15 25 -30 33
-16 27 48 -8 84 -59 245 -108 335 -55 104 -52 132 8 70 32 -34 103 -170 103
-198 0 -27 27 -57 40 -44 19 19 -9 109 -71 231 -33 63 -57 118 -54 121 10 10
52 -38 90 -103 44 -77 61 -93 77 -77 16 16 -3 74 -47 142 -38 59 -40 66 -25
75 19 12 73 -58 134 -171 80 -147 150 -254 264 -404 130 -170 190 -238 222
-255 16 -8 38 -30 50 -50 27 -43 59 -63 71 -44 16 27 -150 290 -198 315 -56
27 -93 81 -93 134 0 40 -10 58 -83 153 -33 42 -57 80 -53 85 12 11 210 -198
305 -321 72 -93 101 -122 101 -102 0 15 -49 99 -105 180 -34 50 -68 101 -75
115 -13 24 -12 24 5 10 32 -26 88 -90 143 -164 94 -126 117 -152 120 -134 6
29 -43 109 -147 245 -103 135 -182 220 -303 328 l-68 60 0 85 c-1 101 -12 160
-36 177 -30 22 -37 -1 -18 -62 18 -56 18 -57 -1 -71 -11 -8 -31 -14 -45 -12
-24 3 -25 7 -25 63 -1 33 -2 70 -3 82 -3 35 -69 101 -110 113 -53 14 -92 13
-92 -4 0 -16 76 -56 106 -56 39 0 61 -36 40 -66 -18 -25 -64 -11 -72 21 -7 30
-42 34 -79 9 -31 -20 -32 -42 -3 -46 30 -4 37 -38 9 -38 -31 0 -69 21 -87 48
l-16 25 -24 -27 c-19 -20 -34 -26 -65 -26 -25 0 -42 -5 -45 -14 -3 -8 11 -52
31 -96 34 -75 36 -84 21 -98 -13 -13 -23 -14 -66 -4 -65 15 -128 15 -169 1
-42 -15 -62 3 -111 101 -57 114 -75 169 -62 182 19 19 48 -17 82 -101 18 -42
38 -86 46 -98 20 -31 44 -30 44 3 0 41 18 64 48 64 34 0 52 -16 52 -47 0 -13
6 -23 14 -23 18 0 40 96 34 146 l-4 34 51 -6 c65 -8 90 12 82 63 -5 26 -2 35
11 40 9 3 26 16 38 30 25 29 89 55 124 49 14 -3 57 -11 96 -20z m-2664 -22
c27 -14 30 -19 25 -51 -7 -39 -34 -76 -49 -66 -6 3 -8 24 -5 46 l5 40 -29 -37
c-17 -20 -35 -36 -40 -36 -14 0 -11 58 6 90 18 34 41 38 87 14z m112 -50 c10
-25 -16 -69 -43 -72 -22 -4 -23 -2 -16 35 4 21 9 41 11 45 9 14 42 8 48 -8z
m2074 4 c7 -7 12 -18 12 -26 0 -12 -10 -13 -47 -8 -51 7 -69 18 -59 35 10 15
79 14 94 -1z m1897 -87 c42 -48 85 -102 96 -120 10 -17 27 -31 37 -31 22 0 47
-26 70 -72 12 -23 23 -32 37 -30 11 2 26 4 34 5 7 1 31 -27 52 -63 22 -36 52
-76 67 -90 40 -35 65 -82 100 -180 31 -90 48 -197 34 -218 -22 -32 -54 12 -67
92 -6 37 -7 38 -21 17 -36 -51 -87 41 -104 185 -5 49 -10 92 -10 97 0 4 -7 7
-16 7 -17 0 -17 2 1 -107 9 -50 -1 -54 -46 -22 -45 32 -62 74 -56 132 6 48 -4
87 -23 87 -5 0 -6 -22 -3 -51 5 -46 4 -51 -13 -47 -25 5 -62 73 -70 130 -4 26
-13 56 -20 65 -12 16 -13 14 -8 -14 6 -28 4 -33 -13 -33 -25 0 -72 46 -77 74
-15 85 -27 130 -49 190 -22 61 -26 86 -12 86 2 0 38 -40 80 -89z m-3902 20
c-2 -18 2 -21 32 -21 23 0 35 -5 35 -14 0 -24 -55 -34 -107 -20 -29 8 -29 24
-2 58 24 31 45 29 42 -3z m442 -46 c0 -16 -8 -21 -44 -23 -48 -4 -67 8 -57 33
4 12 17 15 53 13 40 -3 48 -6 48 -23z m-235 -48 c57 -29 86 -49 89 -62 3 -20
3 -20 -18 -1 -15 13 -44 21 -99 26 -91 8 -102 13 -102 44 0 48 20 47 130 -7z
m-453 17 c46 -3 53 -10 43 -44 -17 -58 -67 -145 -93 -160 -42 -23 -49 -3 -22
60 13 30 24 61 25 68 1 28 -20 8 -69 -68 -49 -75 -72 -93 -86 -70 -3 5 8 41
25 81 16 39 30 80 30 90 0 10 9 28 21 40 17 17 27 20 57 13 21 -4 51 -8 69
-10z m-170 -10 c11 -30 -91 -214 -118 -214 -26 0 26 175 62 211 23 23 48 24
56 3z m322 -36 c0 -18 -8 -55 -17 -83 -17 -49 -18 -50 -59 -53 -24 -2 -43 1
-43 6 0 22 52 138 67 150 32 23 53 15 52 -20z m-451 -15 c7 -68 -70 -163 -132
-163 -41 0 -56 16 -56 60 1 56 34 118 67 126 15 3 33 7 38 9 6 2 26 3 45 2 32
-2 35 -5 38 -34z m564 -9 c11 -22 10 -28 -7 -40 -25 -18 -75 -18 -75 0 0 20
39 66 56 66 8 0 20 -12 26 -26z m1767 -35 c11 -17 26 -61 35 -98 10 -36 19
-74 22 -83 10 -33 -16 -18 -43 25 -30 47 -74 167 -67 179 11 17 35 7 53 -23z
m735 -31 c13 -18 22 -36 20 -40 -9 -14 -58 -9 -83 8 l-22 16 22 24 c29 31 33
30 63 -8z m-807 -125 c10 -14 29 -49 43 -77 l25 -51 62 -7 c35 -4 67 -10 73
-13 17 -11 11 -23 -12 -27 -18 -2 -24 -11 -26 -35 -4 -38 -14 -41 -42 -13
l-20 20 -12 -24 c-23 -52 -47 -38 -62 37 -4 15 -11 27 -18 27 -7 0 -9 -22 -4
-75 4 -41 4 -75 1 -75 -3 0 -21 32 -40 70 -18 39 -35 67 -38 63 -2 -4 -7 -25
-11 -45 -8 -45 -15 -46 -46 -13 l-23 24 30 68 c17 37 34 84 38 103 16 75 49
93 82 43z m1128 -145 c45 -52 58 -75 47 -82 -8 -5 -94 94 -117 132 -16 28 33
-7 70 -50z m-588 -74 c41 -74 65 -152 61 -201 l-3 -38 -19 54 c-10 30 -38 96
-62 147 -23 51 -40 95 -36 98 12 13 27 -2 59 -60z m-3912 10 c94 -8 213 -44
367 -109 145 -61 262 -98 360 -113 113 -17 246 -88 268 -143 19 -45 91 -102
154 -122 71 -23 72 -41 6 -85 -65 -42 -65 -61 0 -108 28 -20 49 -42 47 -48
-12 -37 -84 -44 -362 -37 -95 2 -138 -1 -205 -18 -138 -33 -359 -62 -382 -50
-18 10 -18 12 -4 28 18 20 75 47 193 91 154 58 137 83 -89 134 l-114 25 -119
-39 c-144 -46 -270 -80 -302 -80 -68 0 13 62 179 136 80 36 88 37 213 41 159
4 195 10 195 28 0 29 -41 38 -139 32 -122 -8 -247 -42 -403 -111 -203 -90
-268 -112 -268 -90 0 33 151 161 283 238 100 59 153 75 322 101 118 18 179 38
173 56 -6 17 -211 97 -333 129 -60 16 -161 36 -223 45 -63 8 -123 20 -135 26
-20 11 -20 12 -2 25 10 7 36 16 59 19 22 2 55 7 71 9 31 4 65 2 190 -10z
m6134 -59 c20 -40 61 -251 61 -312 0 -61 -16 -69 -49 -26 -27 34 -37 71 -22
86 17 17 13 95 -9 178 -11 41 -20 82 -20 92 0 26 22 16 39 -18z m-2663 -141
c20 -5 23 -10 17 -31 -4 -20 0 -30 18 -44 19 -14 21 -21 12 -30 -28 -28 -86
25 -99 91 -6 29 -5 32 10 27 10 -4 29 -10 42 -13z m2789 -59 c11 -35 25 -59
41 -70 29 -19 38 -40 69 -164 29 -118 50 -144 41 -52 l-6 64 21 -19 c28 -25
95 -167 109 -229 6 -27 19 -59 29 -70 10 -11 21 -26 25 -33 13 -23 36 -185 36
-252 -1 -61 -2 -64 -16 -45 -29 38 -84 154 -101 215 -12 46 -23 65 -41 73 -13
6 -41 41 -62 78 -22 37 -62 93 -88 125 -82 98 -93 126 -86 215 4 44 2 104 -5
143 -18 103 6 118 34 21z m-2665 -7 c40 -64 49 -158 16 -158 -11 0 -44 89 -60
163 -9 39 19 36 44 -5z m-242 -45 c-17 -63 -58 -97 -58 -49 0 24 44 86 60 86
5 0 4 -17 -2 -37z m-1880 -472 c2 -13 -8 -40 -23 -62 -24 -34 -28 -52 -35
-151 -10 -133 -15 -150 -44 -146 -15 2 -32 25 -60 80 -43 86 -55 152 -36 198
13 32 55 60 87 60 10 0 34 11 53 24 41 29 54 28 58 -3z m-261 -203 c4 -47 2
-67 -7 -73 -20 -12 -30 15 -30 81 0 103 27 97 37 -8z m5482 -40 c11 -24 36
-64 55 -90 19 -27 39 -70 45 -98 12 -55 13 -166 3 -244 l-7 -50 -42 90 c-23
49 -52 127 -63 174 -31 122 -39 260 -16 260 3 0 14 -19 25 -42z m-2806 -105
c75 -124 167 -313 167 -343 0 -65 -52 -44 -85 33 -10 23 -46 103 -81 178 -61
129 -73 167 -57 182 13 14 22 6 56 -50z m2995 -376 c1 -78 5 -153 8 -167 10
-43 24 0 32 97 l7 88 38 -145 c21 -80 50 -168 63 -196 28 -59 39 -114 49 -236
10 -126 -9 -168 -42 -90 -12 28 -14 59 -10 125 2 48 1 90 -4 93 -9 5 -17 -24
-17 -65 -1 -30 -9 -38 -25 -22 -7 7 -12 43 -12 95 l0 84 -23 -26 c-13 -13 -27
-21 -31 -16 -5 5 -14 37 -20 71 -7 35 -24 88 -38 119 -24 54 -25 62 -20 183 6
140 13 179 31 161 6 -6 12 -67 14 -153z m270 -532 c7 -14 12 -40 12 -57 0 -17
8 -45 19 -62 10 -17 24 -49 31 -71 7 -22 23 -59 37 -81 16 -28 27 -69 33 -125
5 -45 14 -87 20 -93 7 -7 10 -4 10 10 0 10 5 26 10 34 18 28 31 -10 26 -75 -4
-40 -1 -70 8 -90 13 -26 14 -27 15 -8 1 22 18 40 28 29 10 -10 -18 -190 -33
-213 -21 -33 -41 -28 -49 10 -4 17 -22 68 -40 112 -116 284 -108 253 -100 384
6 94 5 113 -6 109 -8 -2 -19 -29 -25 -59 -6 -36 -15 -54 -25 -54 -12 0 -14 24
-12 139 2 181 13 223 41 161z m303 -780 c-15 -84 -39 -145 -57 -145 -19 0 -18
33 6 119 26 92 38 117 52 103 7 -7 7 -32 -1 -77z m85 8 c-5 -17 -26 -212 -26
-237 0 -6 12 15 27 47 14 31 29 57 33 57 9 0 40 -68 40 -89 0 -24 -95 -111
-121 -111 -34 0 -52 43 -44 108 8 66 31 163 50 210 15 33 51 47 41 15z m-106
-1389 c15 -39 38 -179 55 -339 18 -162 31 -514 21 -541 -16 -41 -29 21 -37
185 -5 91 -21 281 -34 421 -26 267 -28 300 -20 300 3 0 10 -12 15 -26z m-6013
-40 c74 -55 97 -151 48 -199 -21 -22 -33 -25 -103 -25 -82 0 -172 20 -191 43
-14 18 -1 129 17 135 7 2 12 -6 12 -23 0 -32 25 -89 48 -107 14 -12 15 -8 8
32 -3 25 -14 67 -23 94 -15 47 -15 50 3 63 29 22 146 13 181 -13z m6167 -454
c32 -230 40 -388 28 -542 -7 -79 -15 -154 -19 -168 l-7 -25 -7 30 c-4 17 -8
149 -9 295 -1 146 -5 325 -9 398 -3 72 -3 132 0 132 3 0 13 -54 23 -120z
m-5294 -34 c0 -7 -11 -38 -25 -68 l-25 -55 27 -87 c27 -89 25 -118 -7 -76 -51
67 -55 261 -7 292 19 12 37 9 37 -6z m2975 -39 c33 -20 83 -41 110 -47 89 -20
144 -97 145 -202 0 -50 -12 -80 -26 -65 -3 3 -9 30 -13 60 -8 60 -28 98 -66
123 -40 26 -48 7 -18 -44 36 -61 39 -155 7 -198 -57 -77 -126 -88 -234 -36
-36 17 -73 38 -84 46 -18 14 -17 16 13 47 40 39 91 127 91 155 0 23 -23 48
-33 37 -4 -3 -7 -24 -7 -45 0 -52 -15 -77 -54 -93 -76 -32 -146 30 -146 130 0
152 168 223 315 132z m251 0 c71 -49 103 -93 109 -152 4 -44 4 -46 -5 -18 -15
45 -103 138 -150 157 -41 16 -55 46 -21 46 10 0 40 -15 67 -33z m-3055 -42
c74 -39 143 -130 137 -182 -3 -26 -7 -29 -64 -36 -104 -14 -175 17 -214 94
-58 112 24 184 141 124z m4462 -27 c9 -7 26 -35 36 -63 12 -33 28 -54 45 -63
34 -17 33 -26 -9 -59 -35 -28 -43 -47 -25 -58 13 -8 44 10 91 52 43 39 52 29
17 -19 -30 -43 -112 -78 -199 -85 -55 -5 -73 -3 -80 8 -12 20 -11 162 2 215
18 69 78 104 122 72z m423 -143 c52 -31 69 -57 54 -84 -29 -56 -126 -70 -174
-26 -52 48 -16 132 58 134 11 1 39 -10 62 -24z m-123 -151 c61 -37 68 -38 166
-18 l34 7 -6 -97 c-4 -54 -12 -109 -19 -124 -18 -37 -69 -59 -155 -68 -72 -6
-73 -6 -102 25 l-29 31 -7 -39 c-7 -44 -11 -46 -91 -56 -48 -6 -53 -5 -73 21
-24 30 -47 103 -57 174 -11 83 24 73 71 -20 28 -55 52 -78 41 -39 -3 13 -9 45
-12 70 -9 66 10 74 54 23 l34 -39 -7 37 c-13 67 19 106 43 53 12 -26 36 -33
47 -15 4 6 -5 26 -19 45 -56 73 -9 88 87 29z m-5963 -9 c458 -34 715 -80 964
-174 58 -22 141 -47 184 -55 231 -46 628 -46 1022 -1 176 21 198 20 202 -7 5
-35 25 -32 38 6 13 42 21 47 75 57 22 4 67 18 100 30 54 21 78 23 245 23 203
1 224 -2 268 -39 l30 -25 6 26 c7 25 9 26 56 20 27 -4 166 -40 309 -81 334
-96 513 -140 686 -168 134 -21 165 -22 701 -20 l561 1 36 -71 36 -72 -7 55
c-10 93 -9 105 12 105 23 0 32 -28 42 -124 l6 -66 -184 3 c-128 3 -277 -3
-484 -18 -212 -16 -342 -21 -449 -17 -235 9 -510 64 -700 140 -60 24 -204 77
-320 116 -115 40 -224 84 -242 97 -37 28 -43 29 -43 9 0 -30 -57 -6 -121 52
l-40 37 3 -39 3 -39 -123 -13 c-68 -7 -148 -19 -177 -28 -79 -23 -94 -20 -143
28 l-43 42 26 -48 c25 -45 26 -49 11 -72 -9 -14 -81 -57 -185 -109 l-170 -86
-168 0 c-429 1 -638 32 -1030 155 -370 117 -445 129 -808 129 -154 0 -360 -1
-457 -4 -222 -6 -218 -9 -198 112 14 93 26 129 43 140 19 12 205 9 427 -7z
m6476 -205 c6 -140 -17 -435 -35 -453 -8 -8 -14 -8 -22 0 -7 7 -7 27 1 69 6
33 13 165 16 294 3 129 8 242 11 250 11 33 25 -39 29 -160z m-254 -90 c-2 -33
-8 -60 -13 -60 -11 0 -11 55 -2 141 7 64 7 64 13 22 4 -24 4 -70 2 -103z
m-5726 -30 c11 0 28 -6 39 -13 17 -13 13 -19 -49 -87 -43 -46 -64 -76 -58 -82
16 -16 51 8 133 89 l76 75 74 -27 c82 -29 119 -50 119 -67 0 -6 -16 -30 -35
-54 -20 -24 -42 -59 -50 -78 -16 -38 -20 -86 -7 -85 4 0 26 27 49 59 45 63 83
93 83 65 0 -8 -20 -42 -44 -75 -25 -33 -47 -69 -51 -79 -3 -9 -22 -27 -43 -38
-60 -34 -139 -46 -253 -41 -159 8 -285 59 -324 131 -17 32 -17 36 4 117 11 46
21 92 21 103 0 10 15 34 34 53 28 28 42 34 76 34 l42 0 -42 -47 c-73 -82 -84
-134 -33 -154 33 -12 74 10 145 82 53 52 75 99 48 99 -6 0 -42 -29 -80 -65
-67 -63 -107 -84 -93 -48 11 29 73 127 85 135 7 5 36 7 63 4 28 -3 59 -6 71
-6z m5147 -73 c3 -8 8 -40 12 -71 l7 -57 30 28 30 28 18 -23 c22 -27 35 -98
27 -149 -8 -47 -13 -51 -37 -25 -15 15 -33 22 -60 22 -29 0 -42 5 -50 19 -11
21 -14 224 -3 234 10 11 20 8 26 -6z m730 -70 c-4 -156 -36 -233 -106 -256
-57 -19 -220 -33 -292 -26 -110 10 -175 51 -175 110 0 24 56 79 107 107 26 15
77 33 113 42 36 8 121 35 190 60 69 25 134 44 145 43 18 -2 20 -9 18 -80z
m-2854 -37 c110 -22 407 -115 416 -130 9 -15 -68 -49 -157 -69 -230 -53 -429
-24 -499 72 -16 22 -26 44 -23 49 3 5 31 20 61 33 34 15 57 32 60 45 7 25 17
25 142 0z m-3375 -234 c32 -19 81 -43 107 -51 59 -20 72 -39 58 -89 -12 -42
-16 -43 -69 -16 -49 25 -60 25 -60 1 0 -34 38 -51 112 -51 69 0 89 -10 68 -35
-26 -32 -122 -6 -198 52 -18 14 -55 57 -80 96 -72 108 -73 109 -60 125 16 19
53 10 122 -32z m-191 -33 c22 -15 34 -29 28 -31 -18 -6 -12 -27 11 -37 33 -15
59 -57 65 -105 l6 -43 -49 8 c-87 13 -94 21 -113 143 -11 68 -9 92 7 92 3 0
24 -12 45 -27z m4007 18 c0 -12 -37 -21 -87 -21 -41 0 -57 13 -30 23 21 9 117
7 117 -2z m-417 -46 c26 -4 47 -11 47 -15 0 -7 -93 -40 -116 -40 -18 0 -37 37
-30 57 4 10 14 13 29 10 12 -3 43 -9 70 -12z m-189 -25 c29 -11 34 -41 12 -60
-20 -16 -113 -40 -159 -40 -32 0 -39 4 -48 27 -16 41 -5 53 48 53 26 0 57 7
67 15 23 17 45 19 80 5z m-4097 -60 c49 -21 115 -46 147 -54 79 -21 108 -46
69 -60 -36 -14 -246 73 -323 134 -24 19 -24 20 -4 20 12 0 62 -18 111 -40z
m553 -65 l0 -55 -77 1 c-169 3 -181 24 -41 72 57 20 106 36 111 36 4 1 7 -24
7 -54z m4330 -37 c0 -21 -89 -65 -151 -73 -29 -4 -104 1 -198 15 -192 28 -246
41 -246 60 0 24 81 24 166 0 53 -14 102 -20 179 -20 116 1 174 16 205 53 l20
24 12 -21 c7 -12 12 -29 13 -38z m-990 23 c0 -13 -10 -20 -31 -25 -17 -3 -45
-17 -61 -32 -65 -54 -232 -118 -290 -112 l-33 4 45 20 c24 10 109 52 188 92
150 76 182 85 182 53z m-2536 -271 c23 0 48 -5 56 -10 13 -9 13 -11 0 -20 -32
-21 -170 -3 -206 26 -17 14 -13 15 45 10 35 -3 82 -6 105 -6z m-188 -45 c19
-15 19 -15 -5 -35 -24 -21 -48 -22 -44 -2 1 5 -4 16 -12 22 -8 7 -15 16 -15
21 0 15 55 10 76 -6z"/>
<path d="M3256 11785 c-10 -27 -7 -135 4 -135 17 0 31 51 28 99 -3 45 -20 65
-32 36z"/>
<path d="M3246 10899 c-38 -116 -84 -245 -102 -287 -33 -75 -36 -99 -9 -71 13
14 31 58 100 244 18 50 42 114 54 144 19 47 41 181 30 181 -2 0 -35 -95 -73
-211z"/>
<path d="M2433 9420 c11 -53 59 -150 74 -150 18 0 12 20 -30 108 -35 73 -53
91 -44 42z"/>
<path d="M2846 9368 c-33 -38 -47 -78 -28 -78 16 0 92 93 92 112 0 21 -32 4
-64 -34z"/>
<path d="M2345 9359 c28 -100 70 -178 87 -161 11 11 -24 117 -50 151 -26 35
-46 40 -37 10z"/>
<path d="M3060 8948 c0 -81 35 -180 54 -150 7 11 -25 139 -42 167 -10 18 -11
16 -12 -17z"/>
<path d="M2612 8927 c-37 -45 -67 -157 -41 -157 17 0 129 92 129 105 0 10 -9
11 -35 5 -38 -9 -49 -2 -34 20 20 32 4 55 -19 27z"/>
<path d="M2060 8328 c0 -34 32 -167 44 -187 8 -13 36 -15 36 -3 0 5 -6 31 -14
58 -8 27 -21 75 -30 107 -18 63 -36 75 -36 25z"/>
<path d="M3507 7665 c-26 -55 -35 -119 -16 -113 23 8 40 55 37 106 l-3 47 -18
-40z"/>
<path d="M3572 7603 c-25 -50 -36 -109 -22 -118 15 -10 37 23 45 65 3 19 8 47
11 63 8 39 -12 34 -34 -10z"/>
<path d="M3605 6390 c-8 -13 59 -76 118 -110 68 -39 85 -39 58 -1 -40 55 -162
133 -176 111z"/>
<path d="M6215 7220 c-13 -21 -11 -208 3 -222 20 -20 35 39 29 117 -6 82 -19
125 -32 105z"/>
<path d="M6308 7174 c-5 -8 26 -203 37 -231 2 -7 10 -13 16 -13 8 0 10 29 8
98 -4 91 -3 97 16 100 27 4 305 -136 375 -188 61 -46 109 -74 116 -67 8 8 -93
92 -181 151 -120 80 -262 146 -329 153 -29 3 -56 2 -58 -3z"/>
<path d="M6444 7055 c-7 -16 12 -194 21 -203 10 -11 16 6 21 69 9 93 -22 188
-42 134z"/>
<path d="M6560 6960 c0 -74 18 -201 31 -214 13 -14 11 180 -1 226 -17 60 -30
55 -30 -12z"/>
<path d="M6670 6878 c1 -48 17 -182 26 -210 7 -24 31 -23 39 2 11 34 -34 232
-55 245 -6 4 -10 -11 -10 -37z"/>
<path d="M6786 6832 c-11 -18 25 -306 40 -321 21 -23 27 8 21 112 -8 129 -41
242 -61 209z"/>
<path d="M6898 6678 c-2 -6 -1 -34 3 -62 4 -28 8 -90 8 -138 1 -85 11 -112 34
-89 17 17 13 219 -6 264 -16 37 -32 47 -39 25z"/>
<path d="M7153 6424 c-11 -30 -9 -167 4 -171 7 -3 15 10 19 32 3 20 11 34 18
32 30 -9 136 -270 136 -335 0 -29 34 -112 46 -112 4 0 4 33 1 73 -7 106 -88
327 -163 445 -35 54 -50 63 -61 36z"/>
<path d="M5542 6306 c2 -49 7 -71 17 -74 11 -4 13 7 8 58 -8 91 -29 105 -25
16z"/>
<path d="M7583 5685 c-15 -40 33 -103 59 -77 10 10 9 20 -7 49 -23 42 -42 52
-52 28z"/>
<path d="M7096 5344 c-21 -20 -41 -60 -50 -97 -10 -40 18 -33 56 14 44 55 39
129 -6 83z"/>
<path d="M7131 5202 c-42 -70 -62 -132 -43 -132 31 0 123 165 107 191 -12 19
-25 7 -64 -59z"/>
<path d="M7843 5195 c-23 -16 -93 -125 -93 -144 0 -19 18 -12 56 22 64 56 96
164 37 122z"/>
<path d="M7196 5084 c-68 -120 -86 -164 -67 -164 16 0 74 84 115 165 45 90 52
115 32 115 -9 0 -42 -48 -80 -116z"/>
<path d="M7838 5003 c-55 -70 -71 -100 -62 -114 13 -22 85 71 114 145 16 42
-4 30 -52 -31z"/>
<path d="M7274 4998 c-15 -29 -49 -86 -76 -126 -59 -88 -65 -102 -44 -102 29
0 176 220 176 264 0 34 -31 14 -56 -36z"/>
<path d="M7353 4917 c-11 -12 -39 -54 -61 -93 -23 -39 -48 -76 -56 -84 -17
-14 -22 -50 -7 -50 17 0 78 82 121 162 40 75 42 108 3 65z"/>
<path d="M6896 4904 c-28 -28 -14 -79 19 -72 10 1 27 15 38 30 17 22 18 30 7
43 -16 19 -44 19 -64 -1z"/>
<path d="M7861 4844 c-49 -53 -65 -94 -38 -94 24 0 117 109 117 137 0 27 -30
11 -79 -43z"/>
<path d="M7386 4788 c-13 -18 -29 -50 -34 -70 -6 -21 -31 -61 -56 -90 -32 -37
-43 -55 -35 -63 15 -15 77 60 128 155 22 42 41 82 41 89 0 20 -19 11 -44 -21z"/>
<path d="M6937 4782 c-20 -22 -22 -62 -3 -62 7 0 25 12 40 26 14 15 26 33 26
40 0 20 -44 17 -63 -4z"/>
<path d="M7480 4749 c-14 -15 -53 -73 -87 -130 -35 -57 -77 -123 -95 -146 -32
-43 -32 -66 0 -47 53 33 218 293 210 332 -3 15 -7 13 -28 -9z"/>
<path d="M7904 4699 c-30 -29 -54 -60 -54 -70 0 -23 4 -23 39 -3 25 15 91 99
91 117 0 18 -25 3 -76 -44z"/>
<path d="M6966 4668 c-25 -35 -21 -68 9 -68 28 0 48 29 43 63 -4 30 -33 33
-52 5z"/>
<path d="M7929 4553 c-52 -49 -76 -93 -50 -93 29 0 141 114 141 144 0 20 -39
-1 -91 -51z"/>
<path d="M7487 4563 c-13 -21 -36 -61 -51 -89 -15 -28 -52 -79 -82 -113 -30
-34 -54 -67 -54 -72 0 -19 31 -21 52 -3 48 43 188 269 188 304 0 23 -31 7 -53
-27z"/>
<path d="M7579 4493 c-14 -15 -48 -62 -74 -103 -52 -82 -93 -135 -197 -251
-66 -73 -80 -99 -57 -99 18 0 170 161 241 256 81 106 120 177 116 205 -3 19
-4 19 -29 -8z"/>
<path d="M7958 4430 c-39 -42 -47 -60 -25 -60 28 0 87 64 87 95 0 16 -28 0
-62 -35z"/>
<path d="M7045 4408 c-41 -23 -48 -58 -11 -58 27 0 89 47 80 61 -7 12 -45 11
-69 -3z"/>
<path d="M7628 4373 c-8 -10 -34 -47 -58 -83 -59 -90 -153 -199 -314 -369 -75
-79 -136 -147 -136 -152 0 -47 79 19 247 205 152 170 283 350 283 392 0 29 -2
29 -22 7z"/>
<path d="M7968 4300 c-41 -42 -61 -80 -43 -80 12 0 88 76 101 102 23 45 -3 35
-58 -22z"/>
<path d="M7060 4311 c-20 -6 -25 -13 -23 -36 3 -41 16 -49 50 -32 83 43 63 94
-27 68z"/>
<path d="M7642 4208 c-65 -114 -102 -191 -96 -197 9 -9 80 74 115 134 28 48
39 115 20 115 -5 0 -23 -24 -39 -52z"/>
<path d="M7178 4226 c-70 -26 -109 -55 -111 -81 -3 -30 33 -30 73 0 19 14 52
33 73 42 23 10 37 23 37 34 0 28 -11 29 -72 5z"/>
<path d="M8011 4219 c-28 -23 -71 -79 -71 -91 0 -33 62 27 104 100 11 18 -6
14 -33 -9z"/>
<path d="M7175 4125 c-70 -30 -120 -115 -67 -115 31 0 125 111 104 123 -4 3
-21 -1 -37 -8z"/>
<path d="M7693 4066 c-10 -14 -33 -51 -51 -83 -18 -32 -58 -87 -88 -123 -68
-80 -80 -100 -60 -100 35 0 236 261 236 308 0 29 -14 28 -37 -2z"/>
<path d="M8005 4058 c-55 -30 -95 -88 -61 -88 23 0 105 72 106 93 0 10 -22 8
-45 -5z"/>
<path d="M7150 3970 c-75 -75 -66 -125 14 -71 39 27 76 81 76 110 0 26 -45 7
-90 -39z"/>
<path d="M7418 3905 c-42 -34 -97 -72 -122 -84 -64 -32 -181 -142 -173 -164
10 -28 41 -20 103 26 96 71 287 268 273 281 -2 3 -39 -24 -81 -59z"/>
<path d="M7985 3887 c-63 -63 -74 -86 -47 -95 15 -5 119 94 128 120 3 11 1 25
-4 30 -8 8 -31 -9 -77 -55z"/>
<path d="M8003 3748 c-50 -35 -105 -71 -122 -80 -17 -9 -31 -22 -31 -28 0 -49
233 80 271 151 19 37 -25 21 -118 -43z"/>
<path d="M7304 3678 c-117 -62 -175 -113 -159 -138 11 -18 40 -10 101 26 65
39 124 91 124 110 0 22 -28 23 -66 2z"/>
<path d="M8075 3647 c-51 -50 -62 -80 -17 -52 37 24 72 56 83 78 18 33 -19 18
-66 -26z"/>
<path d="M2025 11604 c-4 -27 -13 -64 -21 -83 l-14 -33 44 6 c39 6 45 4 60
-19 18 -27 46 -34 46 -11 0 8 -16 38 -36 67 -20 30 -44 69 -54 88 l-17 34 -8
-49z"/>
<path d="M1293 11358 c-34 -32 -95 -74 -135 -94 -73 -36 -118 -69 -118 -87 0
-5 12 -23 27 -41 32 -38 73 -123 73 -153 0 -16 -6 -23 -19 -23 -43 0 -68 -82
-35 -114 8 -9 18 -16 20 -16 12 0 62 30 73 44 26 31 50 19 76 -40 43 -98 93
-144 155 -144 76 0 307 140 322 195 11 39 -6 107 -38 154 -16 24 -20 37 -12
40 13 4 44 -30 70 -78 19 -34 38 -41 38 -13 0 73 -226 257 -345 282 -65 14
-78 28 -85 94 l-5 51 -62 -57z m64 -123 c27 -8 67 -26 87 -40 20 -14 50 -25
66 -25 16 0 32 -5 36 -11 3 -6 22 -17 41 -25 18 -8 42 -29 53 -47 22 -35 47
-134 37 -144 -14 -14 -57 18 -98 73 -24 31 -45 51 -47 45 -8 -24 -39 -9 -60
28 -14 24 -34 43 -54 51 -106 39 -138 62 -138 97 0 17 15 16 77 -2z m104 -293
c37 -19 84 -50 105 -69 l39 -34 -45 6 c-56 8 -228 88 -237 110 -8 22 15 36 47
28 14 -3 55 -21 91 -41z m70 -147 c5 -4 9 -12 9 -20 0 -16 -74 -40 -96 -31
-19 7 -67 83 -60 95 6 9 113 -23 147 -44z"/>
<path d="M2200 11062 c0 -12 11 -44 24 -70 43 -86 51 -149 51 -407 -1 -203 -4
-259 -23 -361 -12 -67 -24 -157 -27 -200 -5 -74 -4 -77 9 -49 8 16 19 61 25
100 6 38 23 140 38 225 58 339 33 639 -63 747 -30 35 -33 36 -34 15z"/>
<path d="M1325 10525 c-54 -53 -17 -153 87 -236 48 -38 94 -62 245 -129 29
-13 64 -36 79 -52 33 -34 60 -36 70 -6 9 30 -11 44 -153 108 -65 29 -137 62
-160 72 -89 41 -143 135 -122 211 16 60 -4 75 -46 32z"/>
<path d="M1805 10410 c-16 -11 -53 -31 -81 -45 -60 -29 -132 -89 -118 -98 6
-3 19 0 31 6 73 43 91 50 119 53 25 2 95 44 134 81 6 6 -22 23 -40 23 -8 0
-28 -9 -45 -20z"/>
<path d="M2422 10254 c-19 -63 -32 -142 -32 -190 0 -43 12 -58 23 -30 12 30
28 173 25 216 l-3 45 -13 -41z"/>
<path d="M1730 10252 c0 -10 57 -28 119 -38 35 -6 43 -4 39 7 -3 8 -15 20 -29
26 -27 14 -129 18 -129 5z"/>
<path d="M2070 9561 c-40 -77 -96 -170 -126 -207 -57 -71 -60 -79 -44 -89 21
-13 123 121 182 240 29 58 72 184 65 191 -2 3 -37 -58 -77 -135z"/>
<path d="M1920 9210 c-8 -6 -34 -9 -58 -8 -23 1 -48 -4 -54 -10 -9 -9 1 -12
44 -12 61 0 108 13 108 30 0 13 -20 13 -40 0z"/>
<path d="M5180 5970 c0 -5 14 -22 30 -37 17 -14 35 -43 40 -64 7 -24 34 -63
80 -111 39 -40 70 -78 70 -84 0 -17 27 -37 34 -25 8 12 -117 199 -184 274 -49
55 -70 69 -70 47z"/>
<path d="M3543 5958 c-6 -7 -20 -43 -32 -80 -12 -37 -90 -203 -172 -370 -131
-264 -220 -480 -205 -495 8 -8 62 94 127 237 83 185 133 284 175 355 45 75
123 254 131 299 6 41 -8 74 -24 54z"/>
<path d="M5075 5723 c32 -51 75 -79 75 -49 0 23 -50 76 -72 76 -20 0 -20 -1
-3 -27z"/>
<path d="M5220 5534 c0 -8 11 -32 25 -52 14 -20 25 -42 25 -49 0 -7 7 -13 15
-13 22 0 18 26 -12 81 -25 48 -53 65 -53 33z"/>
<path d="M5350 5255 c0 -32 6 -51 20 -65 25 -25 50 -26 50 -2 0 18 -55 112
-65 112 -3 0 -5 -20 -5 -45z"/>
<path d="M3567 4913 c-76 -110 -188 -389 -263 -653 -26 -91 -56 -194 -66 -230
-14 -44 -22 -108 -25 -197 -11 -261 27 -237 52 34 9 98 45 127 59 47 5 -26 12
-34 24 -32 19 4 20 23 7 184 -6 75 -4 109 15 195 30 143 97 339 168 494 61
133 81 195 64 195 -5 0 -21 -17 -35 -37z"/>
<path d="M3197 4713 c-57 -123 -69 -153 -58 -153 9 0 104 187 116 228 3 12 2
22 -3 22 -5 0 -30 -44 -55 -97z"/>
<path d="M6084 4417 c-4 -10 -2 -55 5 -100 14 -101 14 -458 1 -672 -6 -88 -23
-252 -39 -365 -43 -298 -44 -307 -32 -314 27 -17 72 250 96 575 17 216 22 679
10 791 -4 37 -13 75 -20 85 -13 17 -14 17 -21 0z"/>
<path d="M5790 3418 c0 -18 40 -120 52 -136 7 -8 15 -9 21 -3 11 11 -14 94
-39 129 -17 24 -34 29 -34 10z"/>
<path d="M8160 3274 c-35 -24 -50 -44 -43 -60 3 -8 12 -14 20 -14 17 0 83 65
83 81 0 14 -33 11 -60 -7z"/>
<path d="M7375 3142 c-65 -59 -181 -145 -225 -167 -51 -26 -67 -55 -30 -55 52
0 193 106 265 201 26 33 46 62 44 64 -2 2 -26 -17 -54 -43z"/>
<path d="M7615 3093 c-52 -78 -170 -193 -292 -286 -57 -43 -103 -81 -103 -86
0 -32 47 -14 115 43 27 23 84 68 126 99 85 63 136 116 180 185 27 43 39 102
20 102 -4 0 -25 -26 -46 -57z"/>
<path d="M7417 3042 c-57 -55 -142 -126 -187 -158 -89 -63 -106 -84 -68 -84
71 0 305 201 364 313 26 48 -3 29 -109 -71z"/>
<path d="M5548 3084 c-16 -15 92 -238 141 -290 47 -52 37 -1 -27 129 -56 113
-100 176 -114 161z"/>
<path d="M8746 3054 c-24 -17 -56 -64 -56 -82 0 -21 60 19 77 52 17 34 6 51
-21 30z"/>
<path d="M5505 2923 c14 -100 131 -368 177 -410 17 -15 18 -15 18 1 0 9 -13
43 -30 76 -16 32 -44 102 -60 155 -61 188 -122 292 -105 178z"/>
<path d="M7537 2834 c-18 -19 -86 -77 -151 -127 -95 -73 -115 -93 -98 -95 38
-6 123 50 219 143 51 50 93 96 93 103 0 23 -32 12 -63 -24z"/>
<path d="M8500 2846 c0 -14 8 -27 121 -203 51 -81 79 -111 79 -86 0 20 -88
178 -131 236 -50 66 -69 81 -69 53z"/>
<path d="M8390 2815 c0 -13 44 -90 96 -171 31 -47 82 -131 114 -187 31 -56 62
-103 69 -105 28 -9 5 44 -72 169 -148 239 -207 323 -207 294z"/>
<path d="M7499 2637 c-30 -23 -75 -60 -101 -81 -56 -44 -62 -61 -16 -52 64 13
206 128 195 159 -7 22 -25 17 -78 -26z"/>
<path d="M8350 2662 c0 -7 7 -27 16 -45 31 -59 206 -352 220 -367 12 -12 14
-11 14 11 0 34 -45 117 -136 254 -86 130 -113 165 -114 147z"/>
<path d="M5770 2629 c0 -25 38 -118 57 -139 11 -12 13 -11 13 7 0 22 -23 94
-42 131 -14 28 -28 29 -28 1z"/>
<path d="M8770 2614 c0 -7 30 -74 66 -150 91 -193 88 -187 102 -192 33 -10 -7
98 -81 223 -55 92 -86 135 -87 119z"/>
<path d="M6400 2535 c0 -9 21 -51 46 -95 26 -45 44 -86 40 -95 -4 -13 -33 -15
-178 -16 -117 0 -165 -3 -150 -10 34 -13 341 -33 386 -25 l37 7 -31 35 c-16
19 -44 63 -61 97 -51 101 -89 145 -89 102z"/>
<path d="M7472 2468 c-30 -21 -50 -54 -39 -64 13 -13 127 55 127 77 0 17 -55
9 -88 -13z"/>
<path d="M8730 2450 c0 -27 55 -132 81 -156 18 -16 19 -16 19 3 0 27 -71 166
-87 171 -8 2 -13 -5 -13 -18z"/>
<path d="M8385 2378 c21 -69 133 -236 135 -200 0 16 -43 102 -86 170 -35 54
-61 70 -49 30z"/>
<path d="M5455 2165 c-33 -14 -61 -25 -62 -25 -2 0 -3 -7 -3 -16 0 -11 6 -14
23 -8 46 14 117 55 112 64 -8 12 1 14 -70 -15z"/>
<path d="M5730 2157 c0 -7 11 -28 24 -46 56 -76 42 -176 -40 -288 -15 -21 -15
-23 1 -29 22 -9 91 57 116 111 38 82 15 225 -40 255 -27 14 -61 13 -61 -3z"/>
<path d="M2976 2098 c-21 -6 -58 -29 -82 -53 -39 -37 -44 -47 -44 -86 0 -24 8
-60 18 -79 19 -38 77 -82 101 -78 21 4 26 42 11 79 -7 16 -9 40 -6 54 8 31 44
65 68 65 12 0 23 11 29 29 13 37 35 42 96 22 102 -35 242 -161 243 -220 1 -9
7 -27 15 -41 10 -19 15 -21 18 -10 23 70 10 120 -41 157 -20 15 -60 48 -89 74
-74 67 -133 91 -223 95 -41 2 -92 -2 -114 -8z m39 -65 c-16 -8 -47 -31 -67
-51 -42 -40 -53 -38 -43 7 9 41 40 61 95 61 l45 -1 -30 -16z"/>
<path d="M5723 1990 c-12 -25 -25 -58 -29 -73 -6 -24 -4 -28 11 -25 22 4 47
71 42 113 -3 30 -3 30 -24 -15z"/>
<path d="M3540 1935 c0 -3 15 -14 33 -25 38 -24 172 -30 165 -8 -3 7 -25 16
-49 19 -116 16 -149 19 -149 14z"/>
<path d="M3315 1879 c-11 -17 -8 -80 5 -93 14 -13 40 17 40 47 0 40 -30 71
-45 46z"/>
</g>
</svg>
